<svg width="30" height="30" viewBox="0 0 30 30" fill="none" xmlns="http://www.w3.org/2000/svg">
<path fill-rule="evenodd" clip-rule="evenodd" d="M17.7987 25.7744C16.7676 27.7281 14.4176 28.3556 12.5499 27.1759L3.38193 21.3851C1.51417 20.2054 0.835899 17.6652 1.86697 15.7114C2.89804 13.7577 5.248 13.1302 7.11576 14.3099L16.2837 20.1007C18.1515 21.2804 18.8297 23.8206 17.7987 25.7744Z" fill="#008714"/>
<path fill-rule="evenodd" clip-rule="evenodd" d="M26.0648 2.13599C27.9326 3.31572 28.6108 5.85592 27.5798 7.80968L18.0975 25.7776C17.0664 27.7313 14.7164 28.3588 12.8487 27.1791C10.9809 25.9993 10.3026 23.4591 11.3337 21.5054L20.816 3.5375C21.8471 1.58373 24.197 0.956258 26.0648 2.13599Z" fill="#008714"/>
</svg>
