<svg width="35" height="34" viewBox="0 0 35 34" fill="none" xmlns="http://www.w3.org/2000/svg">
<path fill-rule="evenodd" clip-rule="evenodd" d="M32.1125 2.82834C33.6746 4.39043 33.6746 6.92309 32.1125 8.48519L9.48513 31.1126C7.92303 32.6747 5.39037 32.6747 3.82827 31.1126C2.26618 29.5505 2.26618 27.0178 3.82828 25.4558L26.4557 2.82834C28.0178 1.26624 30.5504 1.26624 32.1125 2.82834Z" fill="#D33636"/>
<path fill-rule="evenodd" clip-rule="evenodd" d="M31.9915 31.1127C30.4294 32.6748 27.8967 32.6748 26.3346 31.1127L3.70719 8.48528C2.14509 6.92318 2.14509 4.39052 3.70719 2.82843C5.26928 1.26633 7.80194 1.26633 9.36404 2.82843L31.9915 25.4558C33.5536 27.0179 33.5536 29.5506 31.9915 31.1127Z" fill="#D33636"/>
</svg>
